# xmcd CD database file
#
# Track frame offsets:
#	150
#	13581
#	30757
#	44423
#	63219
#	80455
#	96755
#	116286
#	137490
#	152923
#	164836
#	181086
#	198502
#	209510
#	227044
#	241146
#	256482
#	277866
#
# Disc length: 3871 seconds
#
# Revision: 0
# Processed by: cddbd v1.5.2PL0 Copyright (c) Steve Scherf et al.
# Submitted via: CDex 1.51
#
DISCID=e70f1d12
DTITLE=Beverley Sheehan - Spreadin' Rhythm Around
DYEAR=2002
DGENRE=Jazz
TTITLE0=He Plays Trombone Chicago Style
TTITLE1=Hummin' To Myself
TTITLE2=I Ain't Got Nothin' But The Blues
TTITLE3=I'll Close My Eyes
TTITLE4=Jazz Me Blues
TTITLE5=Lulu's Back In Town
TTITLE6=Streets of London
TTITLE7=Miss Celie's Blues (Sister)
TTITLE8=Spreadin' Rhythm Around
TTITLE9=Peel Me A Grape
TTITLE10=Miss Jenny's Ball
TTITLE11=La Vie En Rose
TTITLE12=What's A Lady Like Me (Doin' In a Joint Like this?)
TTITLE13=When You and I Were Young Maggie Blues
TTITLE14=Rose of Washington Square
TTITLE15=I Double Dare You
TTITLE16=Georgia On My Mind
TTITLE17=With A Wink and A Smile
EXTD=YEAR: 2002
EXTT0=
EXTT1=
EXTT2=
EXTT3=
EXTT4=
EXTT5=
EXTT6=
EXTT7=
EXTT8=
EXTT9=
EXTT10=
EXTT11=
EXTT12=
EXTT13=
EXTT14=
EXTT15=
EXTT16=
EXTT17=
PLAYORDER=
